<svg width="24" height="24" viewBox="0 0 24 24" fill="none" xmlns="http://www.w3.org/2000/svg">
<path fill-rule="evenodd" clip-rule="evenodd" d="M12 24C18.6 24 24 18.624 24 12C24 5.376 18.6 0 12 0C5.376 0 0 5.376 0 12C0 18.624 5.376 24 12 24Z" fill="#299400"/>
<path fill-rule="evenodd" clip-rule="evenodd" d="M12 3.6001C16.2889 3.6001 19.2 6.83283 19.2 10.3201C19.2 11.7201 18.8881 12.9419 18.1603 14.4692C13.8975 14.4692 13.1177 17.2437 12.9358 19.1019L12.8058 20.4001H11.1943L11.0643 19.1019C10.8824 17.2437 10.1026 14.4692 5.83976 14.4692C5.11196 12.9419 4.80005 11.7201 4.80005 10.3201C4.80005 6.83283 7.71124 3.6001 12 3.6001Z" fill="white"/>
</svg>
