<svg width="28" height="28" viewBox="0 0 28 28" fill="none" xmlns="http://www.w3.org/2000/svg">
<g clip-path="url(#clip0_654_6359)">
<path d="M10.4087 19.7831C11.1172 20.71 11.8375 21.8716 12.2153 22.5761C12.6759 23.4906 12.8648 24.1085 13.2072 25.2084C13.408 25.814 13.5969 25.9993 13.9984 25.9993C14.4353 25.9993 14.636 25.6904 14.7895 25.2084C15.1083 24.1703 15.3563 23.3794 15.746 22.6255C16.5135 21.1796 17.4818 19.8943 18.4264 18.6585C18.6862 18.3124 20.3393 16.2733 21.0832 14.6543C21.0832 14.6543 21.9925 12.8871 21.9925 10.4154C21.9925 8.10439 21.095 6.4978 21.095 6.4978L18.4973 7.22695L16.915 11.5771L16.5253 12.1703L16.4426 12.2815L16.3364 12.4175L16.1592 12.6399L15.8995 12.9118L14.4943 14.1106L10.9873 16.2362L10.4087 19.7831Z" fill="#34A853"/>
<path d="M6.78345 14.3577C7.64544 16.4092 9.28676 18.2012 10.4085 19.783L16.348 12.4174C16.348 12.4174 15.5096 13.5668 13.9982 13.5668C12.3096 13.5668 10.9399 12.1579 10.9399 10.3783C10.9399 9.15482 11.6366 8.31445 11.6366 8.31445L7.61002 9.43907L6.78345 14.3577Z" fill="#FBBC04"/>
<path d="M16.419 2.38232C18.391 3.04968 20.0795 4.44618 21.095 6.51003L16.3482 12.4297C16.3482 12.4297 17.0448 11.577 17.0448 10.3658C17.0448 8.54916 15.5806 7.17738 13.9983 7.17738C12.4987 7.17738 11.6367 8.31435 11.6367 8.31435V4.58212L16.419 2.38232Z" fill="#4285F4"/>
<path d="M7.86987 4.99C9.05069 3.51935 11.1171 1.99927 13.9747 1.99927C15.3562 1.99927 16.4071 2.38238 16.4071 2.38238L11.6367 8.31441H8.25955L7.86987 4.99Z" fill="#1A73E8"/>
<path d="M6.78349 14.3577C6.78349 14.3577 6.00415 12.7388 6.00415 10.4031C6.00415 8.19091 6.83072 6.263 7.88164 5.00244L11.6484 8.32685L6.78349 14.3577Z" fill="#EA4335"/>
</g>
<defs>
<clipPath id="clip0_654_6359">
<rect width="16" height="24" fill="white" transform="translate(6 2)"/>
</clipPath>
</defs>
</svg>
