<svg xmlns="http://www.w3.org/2000/svg" width="143" height="41" fill="none"><defs><filter id="a" width="141.411" height="39.453" x=".794" y=".774" color-interpolation-filters="sRGB" filterUnits="userSpaceOnUse"><feFlood flood-opacity="0" result="BackgroundImageFix"/><feGaussianBlur in="BackgroundImage" stdDeviation="14.667"/><feComposite in2="SourceAlpha" operator="in" result="effect_backgroundBlur_1"/><feBlend in="SourceGraphic" in2="effect_backgroundBlur_1" result="shape"/></filter></defs><path fill="none" d="M0 0h143v41H0z"/><g filter="url(#a)"><path fill="#000" d="M142.2 36.27c0 2.18-1.82 3.95-4.07 3.95H4.87c-2.25 0-4.08-1.77-4.08-3.95V4.73C.79 2.54 2.62.77 4.87.77h133.26c2.25 0 4.07 1.77 4.07 3.96v31.54Z"/></g><path fill="#A6A6A6" d="M137.7.82c2.45 0 4.45 1.93 4.45 4.3v30.75c0 2.37-2 4.3-4.45 4.3H5.29c-2.45 0-4.45-1.93-4.45-4.3V5.12c0-2.37 2-4.3 4.45-4.3H137.7Zm0-.82H5.29C2.38 0 0 2.3 0 5.12v30.75C0 38.69 2.38 41 5.29 41H137.7c2.91 0 5.3-2.31 5.3-5.13V5.12C143 2.3 140.61 0 137.7 0Z"/><path fill="#FFF" fill-rule="evenodd" d="M29.9 6.37c.18 1.54-.46 3.07-1.38 4.19-.97 1.1-2.51 1.95-4.02 1.84-.2-1.49.57-3.07 1.42-4.04.97-1.1 2.64-1.94 3.98-1.99Zm4.93 8.92c-.17.1-2.95 1.7-2.92 4.98.03 3.96 3.58 5.27 3.62 5.29-.02.09-.55 1.89-1.88 3.71-1.11 1.61-2.28 3.18-4.12 3.21-.88.01-1.48-.23-2.09-.48-.65-.27-1.32-.55-2.37-.55-2.08 0-2.72 1-4.44 1.07-1.76.06-3.11-1.72-4.26-3.31-2.3-3.25-4.09-9.16-1.69-13.18 1.17-1.97 3.29-3.24 5.56-3.28.99-.02 1.95.35 2.79.68.64.25 1.21.47 1.68.47.42 0 .97-.21 1.62-.46 1.02-.39 2.28-.87 3.55-.74.87.02 3.35.33 4.95 2.59Z"/><path fill="#FFF" d="M51.95 10.25c0 1.21-.37 2.12-1.12 2.73-.69.56-1.67.84-2.95.84-.63 0-1.17-.02-1.62-.08V7.15c.59-.09 1.22-.14 1.91-.14 1.21 0 2.13.26 2.74.77.7.57 1.04 1.4 1.04 2.47Zm-1.17.03c0-.78-.21-1.38-.64-1.8-.43-.41-1.05-.62-1.88-.62-.35 0-.64.02-.89.07v5.01c.14.02.39.03.75.03.85 0 1.5-.23 1.97-.69.46-.45.69-1.12.69-2ZM58.16 11.31c0 .74-.22 1.35-.66 1.83-.46.49-1.07.73-1.83.73-.73 0-1.32-.23-1.75-.7-.44-.47-.65-1.07-.65-1.78 0-.75.22-1.36.67-1.84.45-.48 1.05-.72 1.81-.72.74 0 1.33.24 1.77.71.43.46.64 1.05.64 1.77Zm-1.15.03c0-.44-.1-.83-.3-1.14-.23-.39-.57-.58-1-.58-.44 0-.78.19-1.01.58-.2.31-.3.7-.3 1.16 0 .45.1.83.3 1.15.24.38.57.58 1 .58.43 0 .76-.2 1-.59.2-.33.31-.71.31-1.16ZM66.48 8.93l-1.56 4.83H63.9l-.65-2.09c-.16-.53-.29-1.05-.4-1.57h-.02c-.09.54-.23 1.06-.4 1.57l-.69 2.09h-1.03l-1.47-4.83h1.15l.56 2.3c.14.54.25 1.06.34 1.55h.02c.08-.4.22-.92.41-1.54l.71-2.31h.9l.68 2.26c.17.55.3 1.08.4 1.59h.03c.08-.5.19-1.03.34-1.59l.61-2.26h1.09ZM72.23 13.76h-1.11V11c0-.86-.33-1.28-1-1.28-.33 0-.6.11-.8.35-.21.23-.31.51-.31.83v2.86H67.9v-3.45c0-.42-.02-.88-.04-1.38h.97l.06.76h.03c.13-.24.32-.43.57-.59.3-.18.64-.27 1.01-.27.46 0 .85.15 1.16.44.38.36.57.89.57 1.6v2.89ZM75.3 13.76h-1.11V6.71h1.11v7.05ZM81.83 11.31c0 .74-.22 1.35-.66 1.83-.46.49-1.07.73-1.83.73-.73 0-1.31-.23-1.75-.7-.43-.47-.65-1.07-.65-1.78 0-.75.22-1.36.67-1.84.45-.48 1.06-.72 1.82-.72.73 0 1.32.24 1.76.71.43.46.64 1.05.64 1.77Zm-1.15.03c0-.44-.1-.83-.3-1.14-.23-.39-.56-.58-.99-.58-.45 0-.79.19-1.02.58-.2.31-.3.7-.3 1.16 0 .45.1.83.3 1.15.24.38.57.58 1.01.58.42 0 .75-.2.99-.59.21-.33.31-.71.31-1.16ZM87.2 13.76h-.99l-.09-.55h-.03c-.34.44-.82.66-1.46.66-.47 0-.85-.14-1.13-.43-.27-.27-.4-.6-.4-.99 0-.59.26-1.04.77-1.35.51-.31 1.23-.46 2.15-.46v-.09c0-.63-.34-.95-1.03-.95-.5 0-.93.12-1.31.36l-.22-.71c.46-.28 1.04-.42 1.71-.42 1.31 0 1.96.67 1.96 2v1.78c0 .48.03.87.07 1.15Zm-1.15-1.66v-.74c-1.22-.02-1.84.3-1.84.97 0 .25.07.44.22.57.14.12.32.19.54.19.24 0 .47-.08.68-.23.21-.15.34-.34.38-.57a.92.92 0 0 0 .02-.19ZM93.51 13.76h-.98l-.06-.77h-.03c-.31.59-.85.88-1.6.88-.6 0-1.1-.23-1.5-.68-.4-.46-.59-1.05-.59-1.78 0-.78.21-1.42.64-1.9.42-.45.93-.68 1.54-.68.67 0 1.14.22 1.41.66h.02V6.71h1.11v5.75c0 .47.02.91.04 1.3Zm-1.15-2.03v-.81c0-.14-.01-.25-.03-.34-.06-.26-.2-.47-.4-.65-.21-.17-.46-.26-.74-.26-.42 0-.74.16-.98.48-.24.31-.36.72-.36 1.22 0 .48.12.86.35 1.16.24.32.56.48.97.48.36 0 .65-.13.87-.4.22-.24.32-.54.32-.88ZM103.01 11.31c0 .74-.22 1.35-.66 1.83-.46.49-1.07.73-1.83.73-.73 0-1.32-.23-1.75-.7-.44-.47-.65-1.07-.65-1.78 0-.75.22-1.36.67-1.84.45-.48 1.05-.72 1.81-.72.73 0 1.32.24 1.77.71.42.46.64 1.05.64 1.77Zm-1.15.03c0-.44-.1-.83-.3-1.14-.24-.39-.57-.58-1-.58-.44 0-.78.19-1.02.58-.2.31-.29.7-.29 1.16 0 .45.09.83.29 1.15.24.38.58.58 1.01.58.42 0 .76-.2 1-.59.2-.33.31-.71.31-1.16ZM108.98 13.76h-1.11V11c0-.86-.34-1.28-1.01-1.28-.33 0-.6.11-.8.35-.21.23-.31.51-.31.83v2.86h-1.11v-3.45c0-.42-.01-.88-.04-1.38h.97l.06.76h.03c.13-.24.32-.43.57-.59.3-.18.64-.27 1.01-.27.46 0 .85.15 1.16.44.38.36.58.89.58 1.6v2.89ZM116.45 9.74h-1.23v2.34c0 .6.22.9.65.9.2 0 .37-.02.5-.05l.02.81c-.21.08-.5.12-.86.12-.44 0-.78-.13-1.02-.38-.25-.26-.38-.7-.38-1.31V9.74h-.72v-.81h.72v-.88l1.09-.32v1.2h1.23v.81ZM122.32 13.76h-1.11v-2.74c0-.87-.33-1.3-1-1.3-.52 0-.87.25-1.06.75-.04.11-.05.24-.05.39v2.9h-1.11V6.71h1.11v2.92h.02c.35-.53.85-.8 1.5-.8.46 0 .84.15 1.14.44.37.36.56.91.56 1.62v2.87ZM128.39 11.12c0 .19-.02.35-.05.49h-3.33c.02.47.18.84.49 1.09.28.23.64.34 1.09.34.49 0 .94-.08 1.34-.23l.18.75c-.48.19-1.03.29-1.68.29-.77 0-1.38-.22-1.82-.66-.45-.44-.66-1.03-.66-1.77 0-.73.2-1.34.61-1.82.43-.52 1.01-.78 1.75-.78.72 0 1.26.26 1.63.78.3.41.45.92.45 1.52Zm-1.06-.28c0-.32-.07-.59-.22-.82-.19-.3-.49-.45-.88-.45-.36 0-.66.14-.89.44-.18.23-.29.51-.33.83h2.32ZM56.82 32.29h-2.41l-1.31-4.01h-4.58l-1.26 4.01h-2.34l4.54-13.64h2.8l4.56 13.64ZM52.7 26.6l-1.19-3.56c-.13-.37-.37-1.22-.71-2.57h-.05c-.14.58-.36 1.43-.67 2.57l-1.17 3.56h3.79ZM68.49 27.25c0 1.67-.47 2.99-1.4 3.96-.84.87-1.88 1.3-3.12 1.3-1.34 0-2.3-.47-2.89-1.4h-.04v5.18h-2.26v-10.6c0-1.05-.02-2.13-.08-3.24h1.99l.12 1.56h.04c.76-1.17 1.9-1.76 3.43-1.76 1.2 0 2.2.46 3.01 1.37.8.92 1.2 2.13 1.2 3.63Zm-2.3.08c0-.96-.22-1.75-.67-2.37-.49-.65-1.15-.97-1.97-.97-.55 0-1.06.18-1.51.53-.46.36-.75.83-.89 1.41-.07.27-.11.49-.11.67v1.64c0 .71.23 1.32.68 1.81.46.49 1.05.74 1.77.74.85 0 1.51-.32 1.99-.95.47-.64.71-1.47.71-2.51ZM80.18 27.25c0 1.67-.47 2.99-1.4 3.96-.84.87-1.88 1.3-3.12 1.3-1.34 0-2.3-.47-2.88-1.4h-.05v5.18h-2.25v-10.6c0-1.05-.03-2.13-.09-3.24h1.99l.12 1.56h.05c.75-1.17 1.89-1.76 3.43-1.76 1.19 0 2.2.46 3 1.37.8.92 1.2 2.13 1.2 3.63Zm-2.3.08c0-.96-.22-1.75-.67-2.37-.49-.65-1.14-.97-1.97-.97-.55 0-1.06.18-1.51.53-.46.36-.75.83-.89 1.41-.07.27-.11.49-.11.67v1.64c0 .71.23 1.32.68 1.81.46.49 1.04.74 1.77.74.85 0 1.51-.32 1.99-.95.47-.64.71-1.47.71-2.51ZM93.25 28.46c0 1.16-.42 2.11-1.25 2.83-.92.8-2.2 1.2-3.84 1.2-1.52 0-2.73-.28-3.65-.85l.52-1.82c.99.58 2.08.87 3.26.87.85 0 1.52-.19 1.99-.56.48-.37.71-.87.71-1.49 0-.55-.19-1.02-.58-1.4-.39-.38-1.04-.73-1.95-1.05-2.47-.89-3.7-2.2-3.7-3.91 0-1.12.43-2.04 1.3-2.76.86-.72 2.01-1.07 3.45-1.07 1.28 0 2.35.21 3.2.64l-.57 1.79c-.79-.42-1.69-.63-2.69-.63-.8 0-1.42.19-1.86.56-.38.34-.57.75-.57 1.24 0 .54.22.98.65 1.34.37.32 1.06.67 2.05 1.05 1.21.47 2.1 1.02 2.68 1.66.57.63.85 1.42.85 2.36ZM100.72 24.09h-2.49v4.78c0 1.21.44 1.82 1.32 1.82.4 0 .74-.04 1-.1l.06 1.66c-.44.16-1.03.24-1.75.24-.9 0-1.59-.27-2.1-.79-.5-.53-.75-1.41-.75-2.65v-4.96h-1.48v-1.64h1.48v-1.8l2.22-.65v2.45h2.49v1.64ZM111.95 27.29c0 1.51-.45 2.75-1.34 3.72-.93 1-2.18 1.5-3.72 1.5-1.5 0-2.68-.48-3.57-1.44-.88-.95-1.33-2.16-1.33-3.62 0-1.52.46-2.77 1.37-3.74.92-.97 2.15-1.46 3.69-1.46 1.5 0 2.7.48 3.6 1.44.87.93 1.3 2.13 1.3 3.6Zm-2.34.07c0-.91-.2-1.69-.61-2.34-.47-.78-1.15-1.17-2.03-1.17-.9 0-1.59.39-2.07 1.17-.4.65-.6 1.44-.6 2.38 0 .91.2 1.68.6 2.33.49.79 1.17 1.18 2.05 1.18.87 0 1.54-.4 2.03-1.2.42-.66.63-1.45.63-2.35ZM119.29 24.37c-.22-.04-.46-.06-.71-.06-.8 0-1.41.29-1.84.87-.38.52-.57 1.16-.57 1.95v5.16h-2.25l.02-6.74c0-1.14-.03-2.17-.09-3.1h1.97l.08 1.88h.06c.24-.64.62-1.16 1.13-1.55.51-.36 1.05-.53 1.64-.53.2 0 .39.01.56.04v2.08ZM129.39 26.9c0 .39-.03.72-.08.99h-6.78c.03.98.36 1.72.99 2.23.57.46 1.31.69 2.21.69 1 0 1.92-.16 2.74-.47l.36 1.52c-.96.41-2.1.61-3.41.61-1.58 0-2.81-.45-3.71-1.35-.9-.89-1.35-2.1-1.35-3.61 0-1.48.42-2.72 1.25-3.7.88-1.05 2.07-1.58 3.56-1.58 1.46 0 2.57.53 3.32 1.58.6.83.9 1.87.9 3.09Zm-2.15-.56c.01-.65-.14-1.21-.44-1.68-.39-.61-.99-.91-1.8-.91-.74 0-1.34.29-1.8.89-.37.47-.6 1.04-.67 1.7h4.71Z"/></svg>