<svg xmlns="http://www.w3.org/2000/svg" width="143" height="41" fill="none"><defs><filter id="a" width="143" height="41" x="0" y="0" color-interpolation-filters="sRGB" filterUnits="userSpaceOnUse"><feFlood flood-opacity="0" result="BackgroundImageFix"/><feGaussianBlur in="BackgroundImage" stdDeviation="14.667"/><feComposite in2="SourceAlpha" operator="in" result="effect_backgroundBlur_1"/><feBlend in="SourceGraphic" in2="effect_backgroundBlur_1" result="shape"/></filter></defs><g filter="url(#a)"><path fill="#000" fill-opacity=".4" d="M137.7 41H5.29C2.38 41 0 38.69 0 35.87V5.12C0 2.3 2.38 0 5.29 0H137.7c2.91 0 5.3 2.3 5.3 5.12v30.75c0 2.82-2.39 5.13-5.3 5.13Z"/></g><path fill="#A6A6A6" d="M137.7.82c2.45 0 4.45 1.93 4.45 4.3v30.75c0 2.37-2 4.3-4.45 4.3H5.29c-2.45 0-4.45-1.93-4.45-4.3V5.12c0-2.37 2-4.3 4.45-4.3H137.7Zm0-.82H5.29C2.38 0 0 2.3 0 5.12v30.75C0 38.69 2.38 41 5.29 41H137.7c2.91 0 5.3-2.31 5.3-5.13V5.12C143 2.3 140.61 0 137.7 0Z"/><path fill="#FFF" d="M53.75 27h-4.69l-1.14 3.13h-2.06l4.59-11.7h1.94l4.69 11.7h-2.15L53.75 27Zm-4.09-1.6h3.49l-1.25-3.35c-.17-.46-.34-.98-.51-1.54-.15.5-.31 1-.49 1.52l-1.24 3.37ZM57.91 23.55c0-.65-.02-1.36-.06-2.13h1.86c.08.36.12.73.15 1.1.33-.39.73-.7 1.19-.92.46-.22.97-.34 1.48-.35.59-.01 1.18.16 1.68.49.5.32.9.79 1.13 1.34.33.76.48 1.58.45 2.4.03.9-.16 1.79-.53 2.61a3.78 3.78 0 0 1-1.45 1.64c-.66.38-1.41.57-2.17.56a5.5 5.5 0 0 1-1.75-.3v3.6l-1.99.18.01-10.22ZM63.16 28c.4-.54.61-1.34.61-2.4 0-.98-.17-1.69-.51-2.14-.15-.21-.35-.38-.59-.49-.23-.11-.49-.17-.74-.16-.38-.01-.74.08-1.07.26-.35.2-.66.45-.94.74v4.66c.22.11.46.18.7.23.25.06.52.09.78.09.34.02.67-.04.98-.18.3-.14.57-.35.78-.61ZM67.01 23.55c0-.65-.02-1.36-.07-2.13h1.87c.07.36.12.73.15 1.1.77-.84 1.66-1.27 2.66-1.27.6-.01 1.19.16 1.69.49.5.32.89.79 1.13 1.34.33.76.48 1.58.45 2.4.03.9-.15 1.79-.52 2.61a3.74 3.74 0 0 1-1.46 1.64c-.65.38-1.4.57-2.16.56a5.5 5.5 0 0 1-1.75-.3v3.6l-1.99.18V23.55ZM72.26 28c.4-.55.61-1.35.61-2.4 0-.98-.17-1.69-.51-2.14-.15-.21-.35-.38-.58-.49-.24-.11-.49-.17-.75-.16-.37-.01-.74.08-1.07.26-.34.2-.66.45-.93.74v4.66c.22.11.45.18.69.23.26.06.52.09.78.09.34.02.67-.05.98-.18.31-.14.57-.35.78-.61ZM78.56 29.58a4.916 4.916 0 0 1-1.99-2.05c-.48-.98-.72-2.06-.69-3.15-.03-1.16.24-2.32.8-3.34.51-.89 1.26-1.61 2.18-2.07.96-.47 2.02-.71 3.09-.69.64-.01 1.29.07 1.92.22.59.14 1.16.34 1.71.61l-.52 1.53c-.94-.47-1.98-.73-3.04-.75-.74-.02-1.48.17-2.13.53-.62.35-1.12.89-1.43 1.53-.36.76-.53 1.6-.5 2.44-.02.75.11 1.51.38 2.22.25.62.68 1.16 1.24 1.53.64.4 1.38.6 2.14.57.39 0 .77-.04 1.16-.1.37-.06.74-.16 1.09-.28v-2.38h-2.71V24.4h4.65v4.93c-.68.31-1.38.55-2.11.72-.72.16-1.45.25-2.19.25-1.06.02-2.11-.23-3.05-.72ZM92.99 30.13a8.96 8.96 0 0 1-.14-1.16c-.33.39-.74.71-1.19.94-.52.26-1.09.39-1.67.38-.47.01-.94-.09-1.37-.29-.41-.2-.75-.51-.98-.89a2.72 2.72 0 0 1-.36-1.45c-.02-.39.05-.77.21-1.12.16-.35.4-.66.7-.9.61-.51 1.62-.76 3.04-.76.53 0 1.06.04 1.58.12v-.18c0-.76-.16-1.31-.49-1.62-.39-.34-.9-.51-1.41-.47-.46 0-.92.06-1.37.18a7.2 7.2 0 0 0-1.28.45l-.32-1.46c.46-.19.93-.34 1.41-.44.6-.14 1.22-.21 1.84-.2.66-.02 1.31.1 1.92.34.54.24.97.65 1.23 1.18.33.7.48 1.47.45 2.25v3.46c0 .36.02.91.06 1.64h-1.86Zm-1.19-1.6c.38-.18.73-.43 1.01-.75v-1.6c-.44-.05-.88-.08-1.33-.08-.82 0-1.39.13-1.71.4a1.322 1.322 0 0 0-.47 1.06c-.01.18.01.35.07.52.06.16.15.31.27.44.26.22.6.33.94.31.42-.01.84-.11 1.22-.3ZM96.33 28.04v-10.3l1.99-.16v10.1c-.03.28.03.57.18.8.08.08.17.15.28.19.1.04.22.05.33.05.18-.01.36-.04.53-.1l.23 1.43a3.2 3.2 0 0 1-.69.19c-.25.04-.51.06-.77.06-1.38 0-2.08-.76-2.08-2.26ZM101.29 28.04v-10.3l1.99-.16v10.1c-.03.28.04.57.19.8.08.08.17.15.27.19.11.04.22.05.33.05.18-.01.36-.04.54-.1l.23 1.43a3.2 3.2 0 0 1-.69.19c-.26.04-.51.06-.77.06-1.39 0-2.08-.76-2.09-2.26ZM113 26.03h-5.7c.09 1.82.96 2.74 2.61 2.74.42-.01.84-.06 1.25-.15.42-.1.84-.24 1.23-.4l.44 1.36c-1.03.49-2.15.73-3.28.71-.82.02-1.62-.16-2.35-.53-.62-.34-1.12-.87-1.43-1.51-.34-.75-.5-1.56-.48-2.37-.02-.86.15-1.71.51-2.49.3-.66.8-1.22 1.42-1.6a4.01 4.01 0 0 1 2.09-.55c.73-.03 1.45.18 2.06.58.55.38.98.92 1.23 1.54.27.67.41 1.4.4 2.13v.54Zm-1.94-1.27c0-.57-.19-1.12-.54-1.56a1.59 1.59 0 0 0-.56-.41 1.8 1.8 0 0 0-.69-.13c-.24 0-.47.04-.69.14-.22.09-.41.23-.57.4-.38.44-.61.98-.66 1.56h3.71ZM114.51 23.61c0-.48-.03-1.21-.07-2.19h1.87c.03.24.06.53.09.87.03.33.05.61.06.82.2-.34.43-.67.68-.97.22-.26.49-.47.79-.64.31-.16.66-.25 1.02-.24.27-.01.54.02.8.1l-.25 1.72a2.27 2.27 0 0 0-.97-.06c-.32.04-.63.16-.9.33-.44.33-.83.73-1.14 1.18v5.6h-1.98v-6.52ZM120.86 33.69a4.2 4.2 0 0 1-.72-.17l.36-1.45c.17.04.34.08.51.11.19.03.39.05.58.05.89 0 1.55-.57 1.99-1.7l.13-.33-3.22-8.78h2.14l1.63 4.91c.21.63.38 1.27.51 1.93.15-.63.33-1.26.53-1.89l1.63-4.95h2l-3.2 8.82c-.24.71-.57 1.39-.97 2.02-.32.48-.74.87-1.24 1.14-.54.26-1.13.39-1.73.37-.31 0-.62-.02-.93-.08ZM45.86 7.3h3.55l-.1.85h-2.42v1.67h2.28v.8h-2.28v1.84h2.55l-.09.87h-3.49V7.3ZM51.86 10.25 49.99 7.3h1.18l1.27 2.17 1.34-2.17h1.15l-1.87 2.91 2.02 3.12h-1.2l-1.44-2.37-1.46 2.37h-1.15l2.03-3.08ZM55.84 7.3h1.63c.76 0 1.35.15 1.75.46.21.16.37.37.47.6.11.24.16.5.14.75.01.37-.08.73-.26 1.05-.18.3-.45.54-.76.69-.35.16-.74.25-1.12.24-.27-.01-.54-.03-.8-.08v2.32h-1.05V7.3Zm2.62 2.69c.11-.11.2-.24.26-.39.05-.15.08-.3.07-.46a.95.95 0 0 0-.07-.44.88.88 0 0 0-.27-.36c-.3-.18-.65-.27-1-.25h-.56v2.14c.19.03.4.05.6.06.35.02.69-.08.97-.3ZM60.86 7.3h1.04v5.14h2.5l-.09.89h-3.45V7.3ZM65.98 13.03a2.46 2.46 0 0 1-1.01-1.06c-.24-.5-.36-1.05-.35-1.6-.01-.58.11-1.16.37-1.67.24-.47.61-.86 1.07-1.11.51-.27 1.09-.4 1.67-.38.54-.01 1.09.12 1.57.38.43.25.78.62 1 1.07.24.49.36 1.03.35 1.58.01.58-.12 1.16-.38 1.69-.24.46-.61.85-1.07 1.1-.5.27-1.07.4-1.64.39-.55.01-1.1-.12-1.58-.39Zm2.7-.74c.29-.19.52-.47.66-.8.15-.37.22-.77.21-1.17.01-.4-.06-.79-.19-1.16-.12-.32-.33-.6-.61-.8-.33-.2-.7-.31-1.08-.31-.38 0-.76.11-1.08.31-.3.2-.52.49-.66.82-.15.36-.23.74-.22 1.13-.01.4.06.8.2 1.18a1.727 1.727 0 0 0 1.7 1.11c.38.01.75-.1 1.07-.31ZM71.81 7.3h1.88c.56-.04 1.11.1 1.57.41.18.14.32.32.41.52.09.21.13.43.12.66.01.29-.06.58-.19.84-.12.23-.28.43-.47.6-.18.14-.38.25-.59.33l1.87 2.67h-1.22l-1.57-2.4h-.76v2.4h-1.05V7.3Zm1.63 2.85c.23 0 .46-.05.67-.15.19-.09.35-.23.46-.41.11-.18.16-.4.16-.62a.741.741 0 0 0-.06-.36.756.756 0 0 0-.23-.3c-.25-.16-.54-.23-.84-.21h-.75v2.06l.59-.01ZM77.22 7.3h3.55l-.1.85h-2.4v1.67h2.26v.8h-2.28v1.84h2.54l-.07.87h-3.5V7.3ZM84.64 7.3h1.04v6.03h-1.04V7.3ZM88.43 8.17h-1.86l.09-.87h4.69l-.09.87h-1.78v5.16h-1.05V8.17ZM95.87 13.03c-.43-.24-.79-.62-1.01-1.06-.24-.5-.36-1.05-.35-1.6-.01-.58.11-1.16.37-1.67.24-.47.61-.85 1.07-1.11.51-.27 1.08-.4 1.66-.39.55-.01 1.1.12 1.58.39.44.25.79.62 1.01 1.07.24.49.36 1.03.35 1.58.01.58-.12 1.16-.38 1.69-.24.46-.61.85-1.07 1.1-.51.27-1.07.4-1.64.39-.55.01-1.1-.12-1.59-.39Zm2.7-.74c.3-.19.52-.47.66-.8.15-.37.22-.77.21-1.17.01-.4-.06-.79-.19-1.16-.12-.32-.33-.6-.61-.8-.32-.2-.7-.31-1.08-.31-.38 0-.75.11-1.08.31-.29.2-.52.49-.66.82-.15.36-.23.74-.22 1.13-.01.4.06.8.21 1.18.12.32.35.61.63.81.32.21.69.31 1.07.3.38.01.75-.1 1.06-.31ZM101.7 7.3h1.19l2.99 4.67c-.03-.44-.04-.85-.04-1.23V7.3h.97v6.03h-1.16l-3.03-4.75c.03.53.04 1.01.04 1.43v3.32h-.96V7.3Z"/><path fill="#FFF" fill-rule="evenodd" d="M31.19 7.33H20.12C14.9 7.33 13 9.24 13 14.46v11.07c0 5.22 1.9 7.13 7.12 7.13h11.07c5.22 0 7.13-1.91 7.13-7.13V14.46c.01-5.22-1.9-7.13-7.13-7.13Z"/><path fill="#000" d="M18.01 20h.67v3.31h-.67v-1.35h-1.52v1.35h-.67V20h.67v1.33h1.52V20Zm3.79 1.89c0 .53-.27.83-.75.83-.49 0-.76-.3-.76-.86V20h-.67v1.89c0 .93.51 1.46 1.42 1.46.9 0 1.43-.53 1.43-1.49V20h-.67v1.89Zm7.76.38L28.81 20h-.55l-.75 2.28-.73-2.28h-.72l1.16 3.31h.56l.75-2.18.75 2.18h.56L31 20h-.7l-.74 2.27Zm2.64-.39h1.22v-.6H32.2v-.68h1.77V20h-2.43v3.3h2.5v-.6H32.2v-.82Zm2.64 1.42h.66V20h-.66v3.3Zm-11.04-.68-.3.68h-.69l1.45-3.3h.59l1.45 3.3h-.69l-.28-.68H23.8Zm.25-.6h1.01l-.51-1.18-.5 1.18ZM25.66 15.78a4.217 4.217 0 0 1-4.21-4.22h.59a3.618 3.618 0 0 0 3.62 3.62 3.618 3.618 0 0 0 3.62-3.62h.6c0 1.12-.45 2.19-1.24 2.98s-1.86 1.24-2.98 1.24Z"/></svg>