<svg width="7.042969" height="13.498535" viewBox="0 0 7.04297 13.4985" fill="none" xmlns="http://www.w3.org/2000/svg" xmlns:xlink="http://www.w3.org/1999/xlink">
	<desc>
			Created with Pixso.
	</desc>
	<defs/>
	<path id="Vector" d="M5.95 6.75L0.16 0.96C0.05 0.85 -0.01 0.71 0 0.56C0 0.4 0.05 0.27 0.16 0.16C0.27 0.05 0.41 -0.01 0.56 0C0.72 0 0.85 0.05 0.96 0.16L6.69 5.89C6.81 6.01 6.9 6.15 6.95 6.3C7.01 6.45 7.04 6.59 7.04 6.75C7.04 6.9 7.01 7.04 6.95 7.19C6.9 7.34 6.81 7.47 6.69 7.6L0.96 13.33C0.85 13.44 0.71 13.5 0.56 13.49C0.41 13.49 0.27 13.44 0.16 13.33C0.05 13.22 0 13.08 0 12.93C0 12.77 0.05 12.64 0.16 12.53L5.95 6.75Z" fill="#003333" fill-opacity="1.000000" fill-rule="nonzero"/>
</svg>
