<svg xmlns="http://www.w3.org/2000/svg" width="26" height="26" fill="none"><defs><clipPath id="a"><path fill="#fff" fill-opacity="0" d="M0 0h26v26H0z"/></clipPath></defs><path fill="none" d="M0 0h26v26H0z"/><g clip-path="url(#a)"><path fill="#3C9" d="M16.45 13 8.09 4.64a.801.801 0 0 1-.24-.58c0-.22.08-.42.24-.58.16-.16.36-.24.58-.23.23 0 .42.08.58.23l8.27 8.28c.18.18.3.37.38.59a1.812 1.812 0 0 1 0 1.29c-.08.21-.2.41-.38.59l-8.28 8.28c-.16.16-.35.24-.57.23-.22 0-.42-.08-.57-.24a.785.785 0 0 1-.24-.58c0-.22.07-.41.23-.57L16.45 13Z"/></g></svg>