<svg xmlns="http://www.w3.org/2000/svg" width="24" height="24" fill="none"><defs><clipPath id="a"><path fill="#fff" fill-opacity="0" d="M0 0h24v24H0z"/></clipPath></defs><path fill="none" d="M0 0h24v24H0z"/><g clip-path="url(#a)"><path fill="#033" d="m8.82 12 7.71 7.71c.15.15.22.32.22.53 0 .21-.08.38-.23.53-.14.14-.32.22-.52.22-.21 0-.39-.07-.53-.22l-7.64-7.64c-.17-.16-.28-.34-.36-.54-.07-.2-.11-.4-.11-.59 0-.2.04-.4.11-.6.08-.2.19-.38.35-.54l7.65-7.64c.14-.15.32-.22.53-.22.2 0 .38.07.53.22.15.15.22.32.22.53 0 .21-.08.38-.22.53L8.82 12Z"/></g></svg>