<svg xmlns="http://www.w3.org/2000/svg" 
width="28" height="28" fill="#fff">
<path d="m14 14.826-6.12 6.12a.589.589 0 0 1-.402.175.545.545 0 0 1-.424-.175.573.573 0 0 1-.187-.413c0-.15.062-.288.187-.413l6.12-6.12-6.12-6.12a.589.589 0 0 1-.175-.402.545.545 0 0 1 .175-.424.573.573 0 0 1 .413-.187c.15 0 .288.062.413.187l6.12 6.12 6.12-6.12a.589.589 0 0 1 .402-.175c.158-.008.3.05.424.175a.573.573 0 0 1 .187.413c0 .15-.062.288-.187.413L14.826 14l6.12 6.12a.589.589 0 0 1 .175.402c.008.158-.05.3-.175.424a.573.573 0 0 1-.413.187.573.573 0 0 1-.413-.187L14 14.826Z"/></svg>
