<svg xmlns="http://www.w3.org/2000/svg" width="28" height="28" fill="none"><defs><clipPath id="a"><path fill="#fff" fill-opacity="0" d="M-.5 0h28v28h-28z"/></clipPath></defs><path fill="none" d="M-.5 0h28v28h-28z"/><g clip-path="url(#a)"><path fill="#033" d="m13.5 18.17-4.13-4.13.82-.84 2.72 2.72V5.83h1.17v10.09l2.72-2.72.82.84-4.12 4.13Zm-6.29 3.99c-.53 0-.98-.18-1.34-.54-.36-.36-.54-.8-.54-1.34v-2.83H6.5v2.83c0 .18.07.34.22.49.15.15.31.23.49.23h12.57c.18 0 .34-.08.49-.23.15-.15.23-.31.23-.49v-2.83h1.16v2.83c0 .53-.18.98-.54 1.34-.36.36-.8.54-1.34.54H7.21Z"/></g></svg>