<svg xmlns="http://www.w3.org/2000/svg" width="143" height="41" fill="none"><defs><filter id="a" width="143" height="41" x="0" y="0" color-interpolation-filters="sRGB" filterUnits="userSpaceOnUse"><feFlood flood-opacity="0" result="BackgroundImageFix"/><feGaussianBlur in="BackgroundImage" stdDeviation="14.667"/><feComposite in2="SourceAlpha" operator="in" result="effect_backgroundBlur_1"/><feBlend in="SourceGraphic" in2="effect_backgroundBlur_1" result="shape"/></filter></defs><g filter="url(#a)"><path fill="#000" fill-opacity=".4" d="M137.7 41H5.29C2.38 41 0 38.69 0 35.87V5.12C0 2.3 2.38 0 5.29 0H137.7c2.91 0 5.3 2.3 5.3 5.12v30.75c0 2.82-2.39 5.13-5.3 5.13Z"/></g><path fill="#A6A6A6" d="M137.7.82c2.45 0 4.45 1.93 4.45 4.3v30.75c0 2.37-2 4.3-4.45 4.3H5.29c-2.45 0-4.45-1.93-4.45-4.3V5.12c0-2.37 2-4.3 4.45-4.3H137.7Zm0-.82H5.29C2.38 0 0 2.3 0 5.12v30.75C0 38.69 2.38 41 5.29 41H137.7c2.91 0 5.3-2.31 5.3-5.13V5.12C143 2.3 140.61 0 137.7 0Z"/><path fill="#FFF" d="M10.25 7.72c-.31.32-.49.81-.49 1.44v22.67c0 .64.18 1.13.49 1.44l.08.07 13.13-12.7v-.29L10.33 7.65l-.08.07ZM29.42 24.88l-4.37-4.24v-.29l4.37-4.24.1.06 5.18 2.85c1.48.81 1.48 2.14 0 2.96l-5.18 2.84-.1.06ZM28.73 25.61l-4.48-4.33-13.2 12.78c.49.5 1.29.56 2.2.06l15.48-8.51ZM28.73 15.38 13.25 6.87c-.91-.5-1.71-.44-2.2.06l13.2 12.78 4.48-4.33ZM50.22 10.49c0 .86-.26 1.55-.78 2.06-.6.6-1.39.91-2.34.91-.92 0-1.7-.31-2.34-.92-.64-.62-.96-1.38-.96-2.29 0-.92.32-1.68.96-2.29.64-.62 1.42-.93 2.34-.93.45 0 .89.09 1.3.26.41.17.75.4.99.69l-.55.54c-.42-.49-1-.73-1.74-.73-.67 0-1.25.23-1.74.68-.49.46-.73 1.05-.73 1.78 0 .72.24 1.32.73 1.77.49.45 1.07.68 1.74.68.71 0 1.3-.23 1.77-.68.31-.3.49-.72.53-1.25h-2.3v-.74h3.07c.04.16.05.31.05.46Z"/><path stroke="#FFF" stroke-width=".16" d="M49.44 12.55c-.6.6-1.39.91-2.34.91-.92 0-1.7-.31-2.34-.92-.64-.62-.96-1.38-.96-2.29 0-.92.32-1.68.96-2.29.64-.62 1.42-.93 2.34-.93.45 0 .89.09 1.3.26.41.17.75.4.99.69l-.55.54c-.42-.49-1-.73-1.74-.73-.67 0-1.25.23-1.74.68-.49.46-.73 1.05-.73 1.78 0 .72.24 1.32.73 1.77.49.45 1.07.68 1.74.68.71 0 1.3-.23 1.77-.68.31-.3.49-.72.53-1.25h-2.3v-.74h3.07c.04.16.05.31.05.46 0 .86-.26 1.55-.78 2.06Z"/><path fill="#FFF" d="M55.1 7.93h-2.89v1.94h2.61v.75h-2.61v1.94h2.89v.76h-3.7V7.17h3.7v.76Z"/><path stroke="#FFF" stroke-width=".16" d="M52.21 7.93v1.94h2.61v.75h-2.61v1.94h2.89v.76h-3.7V7.17h3.7v.76h-2.89Z"/><path fill="#FFF" d="M58.55 13.32h-.82V7.93h-1.77v-.76h4.36v.76h-1.77v5.39Z"/><path stroke="#FFF" stroke-width=".16" d="M57.73 13.32V7.93h-1.77v-.76h4.36v.76h-1.77v5.39h-.82Z"/><path fill="#FFF" d="M63.48 13.32V7.17h.82v6.15h-.82Z"/><path stroke="#FFF" stroke-width=".16" d="M63.48 7.17h.82v6.15h-.82V7.17Z"/><path fill="#FFF" d="M67.92 13.32h-.81V7.93h-1.78v-.76h4.37v.76h-1.78v5.39Z"/><path stroke="#FFF" stroke-width=".16" d="M67.11 13.32V7.93h-1.78v-.76h4.37v.76h-1.78v5.39h-.81Z"/><path fill="#FFF" d="M77.97 12.53c-.63.62-1.41.93-2.33.93-.93 0-1.71-.31-2.33-.93-.63-.62-.94-1.38-.94-2.28 0-.91.31-1.67.94-2.29.62-.62 1.4-.93 2.33-.93.92 0 1.69.31 2.32.94.63.62.94 1.38.94 2.28 0 .9-.31 1.66-.93 2.28Zm-4.06-.52c.47.46 1.05.69 1.73.69.68 0 1.25-.23 1.72-.69.47-.46.71-1.05.71-1.76 0-.72-.24-1.31-.71-1.77-.47-.46-1.04-.69-1.72-.69-.68 0-1.26.23-1.73.69-.47.46-.71 1.05-.71 1.77 0 .71.24 1.3.71 1.76Z"/><path stroke="#FFF" stroke-width=".16" d="M75.64 13.46c-.93 0-1.71-.31-2.33-.93-.63-.62-.94-1.38-.94-2.28 0-.91.31-1.67.94-2.29.62-.62 1.4-.93 2.33-.93.92 0 1.69.31 2.32.94.63.62.94 1.38.94 2.28 0 .9-.31 1.66-.93 2.28-.63.62-1.41.93-2.33.93Zm0-.76c.68 0 1.25-.23 1.72-.69.47-.46.71-1.05.71-1.76 0-.72-.24-1.31-.71-1.77-.47-.46-1.04-.69-1.72-.69-.68 0-1.26.23-1.73.69-.47.46-.71 1.05-.71 1.77 0 .71.24 1.3.71 1.76.47.46 1.05.69 1.73.69Z"/><path fill="#FFF" d="M80.05 13.32V7.17h.99l3.09 4.78h.04l-.04-1.18v-3.6h.82v6.15h-.86L80.86 8.3h-.03l.03 1.19v3.83h-.81Z"/><path stroke="#FFF" stroke-width=".16" d="M80.05 7.17h.99l3.09 4.78h.04l-.04-1.18v-3.6h.82v6.15h-.86L80.86 8.3h-.03l.03 1.19v3.83h-.81V7.17Z"/><path fill="#FFF" d="M72.17 22.29c-2.49 0-4.52 1.83-4.52 4.36 0 2.51 2.03 4.36 4.52 4.36 2.49 0 4.52-1.85 4.52-4.36 0-2.53-2.03-4.36-4.52-4.36Zm0 7c-1.37 0-2.54-1.09-2.54-2.64 0-1.57 1.17-2.64 2.54-2.64 1.36 0 2.54 1.07 2.54 2.64 0 1.55-1.18 2.64-2.54 2.64Zm-9.87-7c-2.49 0-4.52 1.83-4.52 4.36 0 2.51 2.03 4.36 4.52 4.36 2.5 0 4.53-1.85 4.53-4.36 0-2.53-2.03-4.36-4.53-4.36Zm0 7c-1.36 0-2.54-1.09-2.54-2.64 0-1.57 1.18-2.64 2.54-2.64 1.37 0 2.54 1.07 2.54 2.64 0 1.55-1.17 2.64-2.54 2.64Zm-11.73-5.66v1.85h4.57c-.13 1.04-.49 1.8-1.04 2.33-.67.64-1.71 1.35-3.53 1.35-2.82 0-5.02-2.2-5.02-4.92 0-2.72 2.2-4.92 5.02-4.92 1.52 0 2.63.57 3.44 1.32l1.35-1.31c-1.14-1.05-2.66-1.86-4.79-1.86-3.86 0-7.1 3.04-7.1 6.77 0 3.73 3.24 6.77 7.1 6.77 2.08 0 3.65-.66 4.88-1.9 1.26-1.22 1.66-2.94 1.66-4.33 0-.43-.04-.82-.11-1.15h-6.43Zm47.99 1.43c-.37-.97-1.52-2.77-3.86-2.77-2.32 0-4.24 1.77-4.24 4.36 0 2.44 1.91 4.36 4.46 4.36a4.51 4.51 0 0 0 3.76-1.93l-1.54-.99c-.51.72-1.21 1.2-2.22 1.2-1 0-1.72-.44-2.18-1.32l6.03-2.41-.21-.5Zm-6.14 1.46a2.43 2.43 0 0 1 2.35-2.55c.79 0 1.45.38 1.68.93l-4.03 1.62Zm-4.9 4.23h1.98V17.93h-1.98v12.82Zm-3.25-7.49h-.06c-.45-.51-1.3-.97-2.37-.97-2.26 0-4.32 1.92-4.32 4.38 0 2.44 2.06 4.34 4.32 4.34 1.07 0 1.92-.46 2.37-.99h.06v.63c0 1.66-.92 2.56-2.4 2.56-1.21 0-1.96-.85-2.27-1.56l-1.72.7a4.29 4.29 0 0 0 3.99 2.57c2.32 0 4.28-1.32 4.28-4.53v-7.83h-1.88v.7Zm-2.26 6.03c-1.37 0-2.51-1.1-2.51-2.62 0-1.54 1.14-2.66 2.51-2.66 1.34 0 2.4 1.12 2.4 2.66 0 1.52-1.06 2.62-2.4 2.62Zm25.82-11.36h-4.73v12.82h1.97v-4.86h2.76c2.2 0 4.35-1.54 4.35-3.98s-2.16-3.98-4.35-3.98Zm.06 6.18h-2.82v-4.4h2.82c1.47 0 2.31 1.19 2.31 2.2 0 .99-.84 2.2-2.31 2.2Zm12.21-1.84c-1.43 0-2.91.61-3.52 1.96l1.75.71c.38-.71 1.07-.94 1.8-.94 1.03 0 2.07.59 2.08 1.65v.13c-.35-.2-1.12-.5-2.06-.5-1.89 0-3.81 1.01-3.81 2.89 0 1.71 1.54 2.82 3.28 2.82 1.33 0 2.07-.58 2.53-1.26h.06v.99h1.91v-4.91c0-2.27-1.75-3.54-4.02-3.54Zm-.24 7.02c-.65 0-1.55-.31-1.55-1.09 0-.99 1.13-1.37 2.1-1.37.87 0 1.28.19 1.8.43-.15 1.19-1.21 2.03-2.35 2.03Zm11.21-6.74-2.27 5.55h-.07l-2.34-5.55h-2.13l3.52 7.76-2.01 4.32h2.07l5.43-12.08h-2.2Zm-17.8 8.2h1.98V17.93h-1.98v12.82Z"/></svg>